<?xml version="1.0" standalone="no"?>
<!DOCTYPE svg PUBLIC "-//W3C//DTD SVG 20010904//EN"
 "http://www.w3.org/TR/2001/REC-SVG-20010904/DTD/svg10.dtd">
<svg version="1.0" xmlns="http://www.w3.org/2000/svg"
 width="1088.000000pt" height="1088.000000pt" viewBox="0 0 1088.000000 1088.000000"
 preserveAspectRatio="xMidYMid meet">
<metadata>
Created by potrace 1.11, written by Peter Selinger 2001-2013
</metadata>
<g transform="translate(0.000000,1088.000000) scale(0.100000,-0.100000)"
fill="#000000" stroke="none">
<path d="M2947 9924 c-3 -3 -31 -6 -63 -7 l-59 -2 -152 -260 c-83 -143 -158
-271 -166 -285 -7 -14 -23 -41 -34 -60 -11 -19 -34 -60 -52 -90 -17 -30 -36
-62 -41 -70 -5 -8 -17 -30 -26 -47 -9 -18 -20 -33 -25 -33 -5 0 -9 -6 -9 -12
0 -7 -23 -50 -50 -96 -28 -46 -50 -85 -50 -87 0 -2 -18 -33 -40 -67 -22 -35
-40 -68 -40 -75 0 -6 -7 -18 -15 -26 -8 -8 -31 -46 -51 -83 -21 -38 -40 -71
-44 -74 -3 -3 -11 -16 -18 -30 -7 -14 -22 -41 -33 -60 -20 -32 -56 -95 -83
-145 -6 -11 -14 -22 -17 -25 -5 -5 -71 -119 -115 -200 -10 -19 -22 -37 -25
-40 -3 -3 -19 -30 -36 -60 -64 -115 -85 -150 -94 -156 -5 -3 -7 -10 -4 -15 4
-5 -1 -12 -9 -15 -9 -3 -14 -10 -11 -14 3 -5 -2 -15 -10 -23 -8 -9 -15 -18
-15 -20 0 -3 -27 -51 -60 -107 -33 -56 -60 -106 -60 -111 0 -5 -4 -9 -9 -9 -5
0 -11 -8 -14 -17 -4 -10 -18 -38 -33 -63 -14 -25 -47 -81 -73 -125 -26 -44
-61 -102 -77 -130 -16 -27 -34 -59 -41 -70 -7 -11 -15 -27 -19 -35 -4 -8 -16
-27 -26 -42 -11 -16 -16 -28 -11 -28 4 0 3 -4 -3 -8 -6 -4 -33 -45 -60 -92
-27 -47 -54 -94 -61 -105 -7 -11 -17 -29 -23 -40 -6 -11 -16 -29 -23 -40 -7
-11 -36 -62 -65 -112 -29 -51 -57 -95 -63 -98 -5 -4 -9 -15 -9 -25 0 -10 -4
-20 -8 -22 -7 -3 -67 -101 -148 -245 -39 -70 -236 -408 -253 -433 -8 -14 -26
-45 -39 -70 -14 -25 -30 -52 -37 -60 -7 -8 -14 -20 -16 -25 -2 -6 -28 -52 -57
-102 l-53 -92 24 -43 c50 -89 65 -114 95 -164 18 -28 32 -54 32 -57 0 -3 14
-26 30 -50 17 -25 30 -50 30 -56 0 -6 5 -11 10 -11 6 0 10 -9 10 -19 0 -11 4
-21 9 -23 4 -1 26 -34 48 -73 22 -38 81 -140 130 -225 50 -85 110 -189 134
-230 24 -41 47 -76 51 -78 4 -2 8 -11 8 -20 0 -8 6 -23 14 -31 7 -9 54 -86
103 -171 49 -85 116 -200 147 -255 32 -55 66 -111 74 -125 9 -14 17 -27 17
-30 0 -3 12 -23 26 -45 28 -44 133 -225 164 -283 11 -20 23 -39 26 -42 3 -3 8
-12 12 -20 4 -8 18 -33 31 -55 14 -22 31 -51 39 -65 8 -14 31 -54 52 -90 21
-36 49 -85 63 -110 13 -25 31 -52 38 -61 8 -8 14 -19 14 -24 0 -4 18 -36 40
-71 22 -35 40 -66 40 -69 0 -3 12 -24 27 -48 15 -23 42 -69 61 -102 19 -33 42
-73 52 -90 86 -148 125 -214 141 -240 10 -16 22 -37 26 -45 4 -8 31 -55 60
-104 29 -49 53 -92 53 -97 0 -5 5 -9 11 -9 5 0 7 -4 4 -10 -3 -5 -2 -10 3 -10
5 0 12 -8 15 -17 7 -20 39 -77 80 -140 15 -24 27 -45 27 -47 0 -3 20 -39 45
-79 25 -41 45 -80 45 -86 0 -6 4 -11 8 -11 4 0 21 -26 37 -57 17 -31 34 -62
38 -68 4 -5 29 -46 54 -90 25 -44 53 -91 62 -105 8 -14 14 -28 13 -32 -1 -5 2
-8 8 -8 5 0 10 -7 10 -15 0 -8 4 -15 8 -15 4 0 13 -12 20 -27 6 -16 20 -41 30
-58 22 -35 42 -69 106 -182 26 -45 51 -85 57 -88 5 -4 62 -6 127 -5 64 0 126
0 137 0 11 -1 25 -1 30 -1 35 0 185 1 268 1 53 0 103 1 110 1 6 0 57 0 112 0
117 0 97 0 278 0 78 0 151 -1 162 -1 11 -1 27 -1 35 -1 78 3 172 1 178 -3 4
-3 14 -1 21 4 8 4 25 4 40 0 14 -4 35 -4 46 0 11 4 29 4 40 0 11 -4 31 -4 45
0 14 3 42 3 63 -1 20 -3 40 -3 42 1 3 4 20 4 39 0 19 -4 40 -4 47 1 7 4 17 5
21 3 5 -3 79 -5 166 -4 86 0 166 0 177 0 11 -1 25 -1 30 -1 35 0 185 1 268 1
53 0 103 1 110 1 6 0 57 0 112 0 117 0 97 0 278 0 78 0 151 -1 162 -1 11 -1
27 -1 35 -1 78 3 172 1 178 -3 4 -3 14 -1 21 4 8 4 25 4 40 0 14 -4 35 -4 46
0 11 4 29 4 40 0 11 -4 31 -4 45 0 14 3 42 3 63 -1 20 -3 40 -3 42 1 3 4 20 4
39 0 19 -4 40 -4 47 1 7 4 17 5 21 3 5 -3 79 -5 166 -4 86 0 166 0 177 0 11
-1 25 -1 30 -1 35 0 185 1 268 1 53 0 103 1 110 1 6 0 57 0 112 0 55 0 108 0
118 0 9 0 80 0 157 0 77 0 148 -1 158 -1 31 0 86 1 127 3 l39 2 243 415 c133
228 249 426 256 440 7 14 46 81 87 150 40 69 80 138 89 153 9 16 21 36 26 45
6 9 44 74 85 145 41 70 80 135 85 145 6 9 28 48 50 87 22 38 45 78 50 87 6 9
36 62 68 117 32 55 62 103 68 106 5 4 7 11 4 16 -4 5 -1 9 4 9 6 0 11 4 11 9
0 5 27 55 60 111 33 56 60 106 60 111 0 5 5 9 10 9 6 0 10 7 10 15 0 8 5 15
12 15 6 0 9 3 5 6 -3 3 10 30 29 59 19 30 34 57 34 61 0 4 6 15 14 23 7 9 27
41 43 71 43 80 57 104 64 110 3 3 8 12 12 20 4 8 20 38 37 65 17 28 38 66 48
85 9 19 20 37 23 40 4 3 21 32 39 65 19 33 42 72 52 88 11 15 16 27 11 27 -4
0 -3 4 3 8 6 4 33 45 60 92 27 47 54 94 61 105 7 11 17 29 23 40 6 11 16 29
23 40 7 11 36 62 65 112 29 51 57 95 63 98 5 4 9 15 9 25 0 10 4 20 8 22 4 2
26 34 48 72 21 38 46 81 54 95 9 14 38 64 65 111 28 47 55 94 62 105 7 11 15
27 19 35 4 8 24 42 44 75 20 33 39 67 43 75 4 8 17 31 30 51 12 20 53 89 91
155 38 65 73 121 77 122 5 2 9 12 9 22 0 9 7 23 15 30 8 7 15 18 15 26 0 7 7
20 16 29 15 15 15 19 -1 56 -10 21 -22 39 -27 39 -4 0 -7 3 -6 8 1 4 -5 18
-13 32 -34 54 -79 131 -79 135 0 3 -16 29 -35 59 -19 30 -35 60 -35 66 0 5 -4
10 -10 10 -5 0 -10 9 -10 19 0 11 -4 21 -9 23 -4 2 -26 35 -48 73 -22 39 -82
142 -133 230 -51 88 -109 187 -127 220 -19 33 -39 62 -44 63 -5 2 -9 10 -9 18
0 7 -25 54 -55 102 -30 49 -55 94 -55 100 0 7 -4 12 -9 12 -5 0 -11 8 -15 18
-3 9 -14 31 -23 47 -10 17 -35 59 -56 95 -20 36 -42 72 -47 80 -6 8 -13 23
-16 33 -4 9 -11 17 -16 17 -5 0 -6 5 -3 10 3 6 3 10 -2 10 -4 0 -13 10 -19 23
-6 12 -49 86 -95 165 -46 79 -93 160 -104 180 -11 20 -22 39 -25 42 -3 3 -11
16 -18 30 -7 14 -23 43 -37 65 -14 22 -35 58 -47 80 -11 22 -31 56 -43 75 -12
19 -22 38 -21 41 1 4 -6 15 -15 25 -14 17 -32 46 -87 145 -43 77 -47 84 -53
89 -3 3 -14 21 -24 40 -9 19 -24 43 -33 53 -8 9 -11 17 -7 17 4 0 1 8 -7 18
-15 17 -25 35 -118 197 -48 83 -59 103 -96 165 -21 36 -44 74 -51 85 -7 11
-15 27 -20 35 -4 8 -31 55 -60 104 -29 49 -53 92 -53 97 0 5 -5 9 -11 9 -5 0
-7 5 -4 10 3 6 2 10 -3 10 -5 0 -12 8 -15 18 -3 9 -20 40 -36 67 -17 28 -36
61 -43 75 -7 14 -15 27 -18 30 -5 4 -106 176 -180 307 -8 15 -39 67 -67 115
-29 49 -53 93 -53 98 0 6 -4 10 -8 10 -5 0 -17 19 -28 43 -10 23 -21 44 -24
47 -5 4 -83 138 -152 260 -34 60 -33 60 -188 60 -52 0 -104 -1 -115 -1 -11 1
-42 0 -70 0 -27 0 -56 0 -62 0 -13 0 -90 0 -115 0 -7 0 -61 1 -120 1 -59 1
-111 -1 -117 -4 -5 -4 -12 -2 -15 2 -3 5 -22 6 -43 3 -21 -4 -57 -4 -81 0 -23
3 -45 2 -48 -3 -3 -4 -10 -5 -16 -2 -5 3 -65 6 -131 5 -67 -1 -131 -1 -142 -1
-11 1 -27 1 -35 1 -78 -3 -172 -1 -178 3 -4 3 -14 1 -21 -4 -8 -4 -25 -4 -40
0 -14 4 -35 4 -46 0 -11 -4 -29 -4 -40 0 -11 4 -31 4 -45 0 -14 -3 -42 -3 -63
1 -20 3 -40 3 -42 -1 -3 -4 -20 -4 -39 0 -19 4 -40 4 -47 -1 -7 -4 -17 -5 -21
-3 -5 3 -77 5 -161 5 -84 -1 -161 -1 -172 -1 -11 0 -36 0 -55 -1 -19 0 -50 0
-67 0 -33 0 -113 0 -135 0 -7 0 -61 1 -120 1 -59 1 -111 -1 -117 -4 -5 -4 -12
-2 -15 2 -3 5 -22 6 -43 3 -21 -4 -57 -4 -81 0 -23 3 -45 2 -48 -3 -3 -4 -10
-6 -15 -2 -6 3 -36 5 -67 4 -31 -1 -61 -1 -67 -1 -14 0 -207 1 -225 0 -8 0
-60 0 -115 0 -55 0 -109 0 -120 0 -11 0 -54 0 -95 0 -41 -1 -79 -1 -85 0 -11
0 -201 1 -225 0 -12 0 -127 0 -235 0 -11 1 -42 0 -70 0 -27 0 -56 0 -62 0 -13
0 -90 0 -115 0 -7 0 -61 1 -120 1 -59 1 -111 -1 -117 -4 -5 -4 -12 -2 -15 2
-3 5 -22 6 -43 3 -21 -4 -57 -4 -81 0 -23 3 -45 2 -48 -3 -3 -4 -10 -5 -16 -2
-12 8 -247 8 -255 1 -3 -3 -15 -2 -28 3 -13 5 -25 7 -28 4z m2968 -1094 c0
-30 5 -58 10 -62 7 -5 6 -8 0 -8 -14 0 -13 -152 0 -162 7 -5 6 -8 0 -8 -12 0
-14 -184 -3 -196 4 -4 4 -14 0 -23 -10 -20 -9 -92 1 -108 4 -6 4 -14 0 -16 -5
-3 -8 -42 -8 -88 l0 -83 35 -7 c19 -4 51 -10 70 -13 52 -8 274 -73 323 -94 41
-19 80 -34 84 -33 3 0 142 -73 178 -94 63 -36 85 -51 85 -58 0 -5 5 -5 10 -2
6 3 13 -1 16 -9 3 -9 11 -16 17 -16 9 0 104 -69 143 -105 7 -5 31 -26 54 -45
23 -19 78 -70 121 -112 l79 -77 -22 -24 c-13 -14 -48 -54 -78 -88 -30 -34 -64
-73 -75 -85 -27 -29 -125 -141 -161 -182 -16 -19 -42 -48 -59 -66 -29 -32
-125 -139 -180 -202 l-28 -32 -26 23 c-36 32 -64 55 -101 85 -18 14 -44 34
-59 46 -47 37 -145 100 -178 115 -18 8 -33 17 -33 21 0 5 -3 7 -7 6 -5 0 -25
7 -46 16 -55 24 -142 58 -145 56 -1 -1 -15 1 -30 4 -117 26 -151 30 -262 29
-100 -1 -153 -5 -210 -17 -14 -3 -38 -9 -55 -12 -39 -8 -155 -65 -155 -76 0
-4 -5 -8 -11 -8 -20 0 -86 -78 -113 -133 -36 -74 -55 -175 -52 -272 2 -44 4
-80 5 -80 2 0 4 -8 6 -17 5 -29 57 -128 66 -128 5 0 9 -6 9 -12 0 -14 148
-158 162 -158 5 0 17 -8 28 -17 10 -10 36 -27 57 -38 21 -11 40 -22 43 -25 15
-15 386 -202 615 -310 39 -18 72 -36 75 -39 3 -3 11 -7 18 -9 8 -1 48 -22 90
-46 43 -23 84 -46 92 -49 8 -4 27 -15 42 -25 15 -9 64 -40 110 -69 46 -28 92
-59 103 -67 11 -9 45 -35 75 -58 104 -81 217 -193 282 -281 22 -28 46 -60 54
-70 7 -9 14 -20 14 -23 0 -3 16 -31 36 -62 21 -31 36 -58 35 -60 -1 -1 8 -24
19 -50 74 -166 100 -294 105 -522 4 -192 -16 -355 -64 -518 -5 -18 -10 -33
-10 -35 0 -1 -4 -13 -9 -27 -5 -14 -18 -49 -28 -77 -10 -29 -22 -53 -26 -53
-5 0 -8 -6 -8 -14 0 -21 -54 -120 -115 -211 -91 -137 -256 -300 -378 -374 -21
-13 -43 -28 -50 -35 -12 -12 -144 -78 -229 -115 -63 -28 -288 -99 -333 -105
-18 -3 -20 -11 -20 -74 0 -41 4 -72 10 -72 7 0 7 -3 0 -8 -12 -9 -14 -252 -1
-252 4 0 4 -6 -1 -12 -11 -15 -11 -108 0 -125 4 -6 4 -14 -1 -17 -9 -6 -8
-118 1 -134 4 -6 4 -13 -1 -16 -5 -3 -8 -34 -7 -69 l2 -63 -391 0 c-215 0
-393 3 -396 7 -3 4 -5 185 -4 403 0 218 -2 396 -5 397 -4 0 -15 2 -26 4 -11 2
-38 6 -61 10 -72 10 -98 15 -149 27 -27 6 -51 11 -52 10 -2 0 -42 11 -90 24
-49 14 -99 28 -113 31 -14 2 -34 8 -45 13 -11 4 -47 18 -80 30 -33 12 -69 26
-80 30 -11 4 -36 14 -55 21 -19 7 -65 27 -102 45 -37 17 -69 29 -72 26 -3 -3
-6 -1 -6 5 0 6 -17 18 -37 27 -50 21 -131 67 -201 115 -31 21 -61 39 -66 39
-5 0 -12 4 -15 9 -3 5 -24 22 -46 39 -22 16 -49 37 -60 48 -11 10 -30 25 -42
33 -13 9 -23 20 -23 26 0 10 247 397 260 407 4 3 13 16 19 29 24 44 224 346
235 353 6 4 13 3 14 -2 2 -6 10 -10 18 -10 8 0 14 -4 14 -8 0 -4 15 -16 33
-26 17 -11 39 -25 47 -33 45 -41 364 -223 391 -223 10 0 19 -5 21 -10 2 -8
107 -48 238 -91 3 -1 10 -3 15 -4 6 0 33 -6 60 -13 171 -40 402 -48 545 -18
14 3 39 8 55 12 85 18 194 80 249 142 6 7 18 21 27 30 15 16 61 105 66 127 1
6 4 20 7 33 3 13 8 33 12 44 10 33 12 185 2 231 -15 72 -39 137 -50 137 -4 0
-8 7 -8 15 0 8 -9 24 -20 35 -11 11 -20 23 -20 28 0 12 -121 125 -180 168 -70
51 -188 124 -201 124 -5 0 -9 3 -9 8 0 4 -10 12 -23 18 -20 10 -204 104 -545
280 -79 41 -172 92 -208 114 -37 22 -68 40 -69 40 -5 0 -213 138 -232 154 -8
6 -22 18 -32 26 -9 8 -33 27 -52 42 -36 27 -179 167 -214 209 -62 76 -180 274
-191 322 -1 4 -3 9 -4 12 -1 3 -3 8 -5 13 -1 4 -5 15 -8 25 -16 40 -20 53 -23
72 -5 26 -10 46 -16 65 -23 64 -34 443 -14 520 3 13 8 40 11 60 5 33 8 50 19
98 2 9 10 37 17 62 7 25 13 50 15 55 20 91 157 352 218 417 15 15 26 31 26 35
0 5 8 16 18 24 9 9 29 29 43 45 63 70 226 204 248 204 5 0 11 4 13 9 9 25 249
140 379 181 68 22 176 51 197 52 6 1 13 6 14 12 0 6 2 191 3 411 2 220 3 403
4 408 1 4 178 6 393 5 l393 -3 0 -55z"/>
</g>
</svg>
