<?xml version="1.0" encoding="utf-8"?>
<!-- Generator: Adobe Illustrator 19.0.0, SVG Export Plug-In . SVG Version: 6.00 Build 0)  -->
<svg version="1.1" id="Ebene_1" xmlns="http://www.w3.org/2000/svg" xmlns:xlink="http://www.w3.org/1999/xlink" x="0px" y="0px"
	 width="34px" height="34px" viewBox="0 0 34 34" style="enable-background:new 0 0 34 34;" xml:space="preserve">
<style type="text/css">
	.st0{fill-rule:evenodd;clip-rule:evenodd;}
</style>
<path id="XMLID_2_" class="st0" d="M17,1C7.92,1,0.55,8.34,0.55,17.41c0,7.25,4.71,13.4,11.25,15.57c0.82,0.15,1.12-0.36,1.12-0.79
	c0-0.39-0.01-1.42-0.02-2.79c-4.57,0.99-5.54-2.2-5.54-2.2c-0.75-1.89-1.83-2.4-1.83-2.4c-1.49-1.02,0.11-1,0.11-1
	c1.65,0.12,2.52,1.69,2.52,1.69c1.47,2.51,3.85,1.78,4.79,1.36c0.15-1.06,0.57-1.78,1.04-2.19c-3.65-0.41-7.49-1.82-7.49-8.11
	c0-1.79,0.64-3.25,1.69-4.4c-0.17-0.41-0.73-2.08,0.16-4.34c0,0,1.38-0.44,4.52,1.68C14.19,9.12,15.6,8.94,17,8.93
	c1.4,0.01,2.8,0.19,4.12,0.55c3.14-2.12,4.52-1.68,4.52-1.68c0.9,2.26,0.33,3.93,0.16,4.34c1.05,1.15,1.69,2.61,1.69,4.4
	c0,6.3-3.85,7.69-7.51,8.09c0.59,0.51,1.12,1.51,1.12,3.04c0,2.19-0.02,3.96-0.02,4.5c0,0.44,0.3,0.95,1.13,0.79
	c6.53-2.17,11.24-8.32,11.24-15.56C33.45,8.34,26.08,1,17,1"/>
</svg>
